{"title":"Judas_Priest_Private_Sessions_480p_1-16-2011_TTL","uid":6205005,"size":1548135084,"categoryP":"video","categoryS":"tv_shows","magnet":"?xt=urn:btih:f794dc240269f59b3641e8223d890a5e7e7830a3&amp;dn=Judas_Priest_Private_Sessions_480p_1-16-2011_TTL&amp;tr=udp%3A%2F%2Ftracker.openbittorrent.com%3A80&amp;tr=udp%3A%2F%2Fopen.demonii.com%3A1337&amp;tr=udp%3A%2F%2Ftracker.coppersurfer.tk%3A6969&amp;tr=udp%3A%2F%2Fexodus.desync.com%3A6969","seeders":0,"leechers":0,"uploader":"thetorrentlord","files":12,"time":1298759523,"description":"This is from a SD broadcast and includes the \n\nindividual songs and an MP3 for every file. Enjoy \n\nand please share.\t\t\t\t\t\n\n\t\t\t\t\t\t\t\n\n\t\t\t\t\t\t\t\n\n\t\t\t\t\t\t\t\n\n\t\t\t\t\t\t\t\n\n\t\t\t\t\t\t\t\n\n\t\t\t\t\t\t\t\n\n\t\n\n**************************************************\n\n**************************************************\n\n**************************************************\n\n**************************************************\n\n****\t\t\t\t\t\t\t\n\n\t\t\t\t\t\t\t\n\n\t\t\t\t\t\t\t\n\n\t\t\t\t\t\t\t\n\n\t\t\t\t\t\t\t\n\n\t\t\t\t\t\n\nJudas_Priest_Private_Sessions_20110116.avi\nFormat                           : AVI\nFormat/Info                      : Audio Video \n\nInterleave\nFile size                        : 975 MiB\nDuration                         : 1h 26mn\nOverall bit rate                 : 1 582 Kbps\nMovie name                       : \n\nJudas_Priest_Private_Sessions_20110116.mpg\nDirector                         : \n\ncreated.with.SUPER(C).v2010.bld.37\nWriting application              : SUPER(C)   \n\nVideo\nID                               : 0\nFormat                           : MPEG-4 Visual\nFormat profile                   : Simple@L3\nFormat settings, BVOP            : No\nFormat settings, QPel            : No\nFormat settings, GMC             : No warppoints\nFormat settings, Matrix          : Default (H.263)\nCodec ID                         : XVID\nCodec ID/Hint                    : XviD\nDuration                         : 43mn 5s\nBit rate                         : 3 024 Kbps\nWidth                            : 624 pixels\nHeight                           : 352 pixels\nDisplay aspect ratio             : 16:9\nFrame rate                       : 23.976 fps\nColor space                      : YUV\nChroma subsampling               : 4:2:0\nBit depth                        : 8 bits\nScan type                        : Progressive\nBits/(Pixel*Frame)               : 0.574\nStream size                      : 932 MiB (96%)\nWriting library                  : XviD 1.1.2 (UTC \n\n2006-11-01)\n\nAudio\nID                               : 1\nFormat                           : MPEG Audio\nFormat version                   : Version 2\nFormat profile                   : Layer 3\nMode                             : Joint stereo\nMode extension                   : MS Stereo\nCodec ID                         : 55\nCodec ID/Hint                    : MP3\nDuration                         : 1h 26mn\nBit rate mode                    : Constant\nBit rate                         : 128 Kbps\nChannel(s)                       : 2 channels\nSampling rate                    : 22.05 KHz\nStream size                      : 39.5 MiB (4%)\nAlignment                        : Aligned on \n\ninterleaves\nInterleave, duration             : 26 ms (0.63 \n\nvideo frame)\nInterleave, preload duration     : 26 ms\nWriting library                  : LAME\u0004t\n\n\n\n","torrent":{"xt":"urn:btih:f794dc240269f59b3641e8223d890a5e7e7830a3","amp;dn":"Judas_Priest_Private_Sessions_480p_1-16-2011_TTL","amp;tr":["udp%3A%2F%2Ftracker.openbittorrent.com%3A80","udp%3A%2F%2Fopen.demonii.com%3A1337","udp%3A%2F%2Ftracker.coppersurfer.tk%3A6969","udp%3A%2F%2Fexodus.desync.com%3A6969"],"infoHash":"f794dc240269f59b3641e8223d890a5e7e7830a3","infoHashBuffer":{"type":"Buffer","data":[247,148,220,36,2,105,245,155,54,65,232,34,61,137,10,94,126,120,48,163]},"announce":[],"urlList":[]}}